<svg width="177" height="42" viewBox="0 0 177 42" fill="none" xmlns="http://www.w3.org/2000/svg">
<g clip-path="url(#clip0)">
<path d="M69.3783 17.1673C68.6324 17.1673 68.0046 16.9995 67.4949 16.6639C66.9852 16.3158 66.7303 15.8807 66.7303 15.3585C66.7303 14.6996 67.1592 14.0408 68.017 13.3819C68.1662 13.27 68.2781 13.2141 68.3526 13.2141C68.4272 13.2141 68.4645 13.2389 68.4645 13.2887C68.4645 13.413 68.3651 13.5124 68.1662 13.587C67.47 14.1464 67.1219 14.7121 67.1219 15.2839C67.1219 15.6942 67.3084 16.0423 67.6813 16.3282C68.0543 16.6017 68.5205 16.7384 69.0799 16.7384C70.2982 16.7384 71.4481 16.1542 72.5297 14.9856C73.0891 14.3764 73.3688 13.674 73.3688 12.8784C73.3688 12.0828 73.0705 11.4923 72.4737 11.1069C71.9765 10.7588 71.3052 10.5848 70.4598 10.5848C69.2415 10.5848 68.017 10.8893 66.7863 11.4985C65.2696 12.232 63.8959 13.3757 62.6652 14.9296C61.4469 16.4712 60.8377 17.9567 60.8377 19.3864C60.8377 20.5177 61.2231 21.3941 61.9939 22.0157C62.7646 22.6248 63.7219 22.9294 64.8656 22.9294C66.1709 22.9294 67.4514 22.6124 68.707 21.9784C69.6642 21.4811 70.4909 20.8471 71.1871 20.0763C71.386 19.8526 71.5414 19.7407 71.6533 19.7407C71.7278 19.7407 71.7651 19.8091 71.7651 19.9458C71.7651 20.0701 71.6968 20.2007 71.56 20.3374C70.9011 21.0336 69.9501 21.7049 68.707 22.3513C67.1779 23.1594 65.6363 23.5634 64.0824 23.5634C62.5408 23.5634 61.3909 23.0537 60.6326 22.0343C60.1229 21.363 59.868 20.5612 59.868 19.6288C59.868 19.2186 59.9178 18.7772 60.0172 18.3048C60.3529 16.7136 61.2355 15.1658 62.6652 13.6616C63.697 12.5801 64.9215 11.7409 66.3387 11.1442C67.7559 10.535 69.0985 10.2305 70.3666 10.2305C71.0379 10.2305 71.6222 10.3113 72.1194 10.4729C73.4745 10.8956 74.152 11.7471 74.152 13.0276C74.152 13.8108 73.922 14.4883 73.4621 15.0602C72.3183 16.4649 70.9571 17.1673 69.3783 17.1673ZM77.6873 18.3981C77.6873 18.8332 77.2708 19.5604 76.4379 20.5798C75.4558 21.7857 74.6166 22.3886 73.9205 22.3886H73.6221C73.2989 22.3886 73.044 22.2208 72.8576 21.8851C72.7084 21.6489 72.6338 21.3879 72.6338 21.102C72.6338 20.3561 73.1746 19.3118 74.2561 17.9692C75.3501 16.6141 76.2328 15.9366 76.9041 15.9366C77.5381 15.9366 77.8551 16.2723 77.8551 16.9436C77.8551 17.1176 77.824 17.3414 77.7619 17.6149C77.7743 17.6522 77.8924 17.6708 78.1162 17.6708C78.3399 17.6708 78.6818 17.5527 79.1418 17.3165C79.1293 17.5278 78.6383 17.8324 77.6686 18.2302C77.681 18.28 77.6873 18.3359 77.6873 18.3981ZM76.4752 17.4284C76.0525 17.4284 75.4496 17.9257 74.6664 18.9202C73.8956 19.9147 73.5102 20.6482 73.5102 21.1206C73.5102 21.593 73.6594 21.8292 73.9578 21.8292C74.4923 21.8292 75.1699 21.3444 75.9903 20.3747C76.8108 19.405 77.2211 18.7089 77.2211 18.2862C77.0222 18.1743 76.7735 17.8884 76.4752 17.4284ZM78.7921 21.419C78.7921 21.7919 78.9973 21.9784 79.4075 21.9784C79.8177 21.9784 80.3461 21.7608 80.9925 21.3257C81.639 20.8906 82.2668 20.3001 82.8759 19.5542C83.0251 19.3553 83.1432 19.2559 83.2302 19.2559C83.3173 19.2559 83.3608 19.2931 83.3608 19.3677C83.3608 19.4423 83.1059 19.7655 82.5962 20.3374C81.353 21.7049 80.315 22.3886 79.4821 22.3886C79.0718 22.3886 78.7238 22.2954 78.4378 22.1089C78.1519 21.91 78.0089 21.6116 78.0089 21.2138C78.0089 20.8036 78.1146 20.3312 78.3259 19.7966C78.6865 18.9513 79.2645 17.8884 80.0602 16.6079C81.5147 14.2459 82.5465 13.0649 83.1556 13.0649C83.28 13.0649 83.4043 13.1146 83.5286 13.2141C83.6653 13.3011 83.7399 13.4005 83.7524 13.5124C83.4664 13.8978 82.9132 14.6375 82.0927 15.7315C81.2847 16.8255 80.7253 17.6149 80.4145 18.0997C80.1037 18.5721 79.8675 18.9264 79.7059 19.1626C79.5567 19.3988 79.4448 19.5853 79.3702 19.722C79.2956 19.8464 79.2086 20.0142 79.1091 20.2255C78.8978 20.6482 78.7921 21.046 78.7921 21.419ZM86.6458 14.7432C86.8323 14.7432 87.0063 14.8053 87.168 14.9296C87.342 15.0415 87.429 15.1783 87.429 15.3399C87.429 15.5015 87.3482 15.6445 87.1866 15.7688C87.0374 15.8807 86.8696 15.9366 86.6831 15.9366C86.4966 15.9366 86.3226 15.8682 86.161 15.7315C86.0118 15.5947 85.9372 15.4393 85.9372 15.2653C85.9372 14.9172 86.1734 14.7432 86.6458 14.7432ZM83.2706 22.5565C82.6366 22.5565 82.3196 22.1462 82.3196 21.3257C82.3196 20.6544 82.6863 19.7283 83.4198 18.5472C84.1533 17.3538 84.7438 16.7509 85.1913 16.7384C85.3156 16.7384 85.4524 16.7882 85.6016 16.8876C85.7632 16.9871 85.844 17.0865 85.844 17.186C85.7818 17.273 85.7072 17.3725 85.6202 17.4843C85.5332 17.5838 85.44 17.6957 85.3405 17.82C85.2411 17.9443 85.1043 18.1246 84.9303 18.3608C84.7562 18.5845 84.5884 18.8021 84.4268 19.0134C83.4944 20.2193 83.0282 21.0522 83.0282 21.5122C83.0282 21.9597 83.1836 22.1835 83.4944 22.1835C83.7555 22.1835 84.1098 22.0405 84.5573 21.7546C85.6016 21.1082 86.4283 20.3996 87.0374 19.6288C87.2612 19.3429 87.4104 19.1999 87.485 19.1999C87.572 19.1999 87.6155 19.2496 87.6155 19.3491C87.6155 19.4485 87.4725 19.6474 87.1866 19.9458C86.9007 20.2442 86.6707 20.4804 86.4966 20.6544C86.335 20.8285 86.2232 20.9466 86.161 21.0087C86.0988 21.0584 85.9807 21.1641 85.8067 21.3257C85.6451 21.4749 85.5208 21.5806 85.4337 21.6427C85.3467 21.7049 85.2224 21.7981 85.0608 21.9224C84.8992 22.0468 84.7562 22.14 84.6319 22.2022C84.5076 22.2519 84.3646 22.314 84.203 22.3886C83.9419 22.5005 83.6312 22.5565 83.2706 22.5565ZM89.8081 16.4587C90.1438 16.4587 90.3116 16.5893 90.3116 16.8503C90.3116 16.9249 90.293 16.9995 90.2557 17.0741C89.1368 18.6281 88.4655 19.8028 88.2417 20.5985C91.1383 17.7019 92.8974 16.2536 93.519 16.2536C93.5811 16.2412 93.6371 16.235 93.6868 16.235C94.0349 16.235 94.2089 16.3904 94.2089 16.7011C94.2089 16.7633 94.1965 16.8255 94.1716 16.8876C94.1468 16.9498 93.8981 17.2854 93.4257 17.8946C92.8787 18.541 92.4126 19.1626 92.0272 19.7593C91.6542 20.3561 91.4678 20.8533 91.4678 21.2511C91.4678 21.6489 91.5548 21.8479 91.7288 21.8479C92.2758 21.8479 93.2268 21.0957 94.5819 19.5915C94.6068 19.5666 94.6503 19.5107 94.7124 19.4237C94.8989 19.1999 95.0108 19.088 95.0481 19.088C95.0854 19.088 95.104 19.1502 95.104 19.2745C95.104 19.3988 95.017 19.5604 94.843 19.7593C93.3014 21.5122 92.2074 22.3886 91.561 22.3886C90.9518 22.3886 90.6473 22.053 90.6473 21.3817C90.6473 20.7104 90.8959 19.9396 91.3932 19.0694L92.5866 17.13C91.7413 17.7516 90.9891 18.4354 90.3303 19.1813C89.6714 19.9147 89.0684 20.6295 88.5215 21.3257C87.9869 22.0219 87.6761 22.37 87.5891 22.37C87.4026 22.37 87.2534 22.2954 87.1415 22.1462C87.0421 21.9846 86.9924 21.7919 86.9924 21.5681C86.9924 21.3319 87.0732 21.0211 87.2348 20.6358C87.3964 20.2504 87.6015 19.7842 87.8501 19.2372L86.7313 20.412C86.4578 20.6855 86.29 20.8222 86.2278 20.8222C86.1532 20.8222 86.1159 20.7849 86.1159 20.7104C86.1159 20.6233 86.1657 20.5301 86.2651 20.4306C86.7251 19.9707 87.1229 19.5293 87.4586 19.1067C87.7818 18.684 88.4469 17.8759 89.4538 16.6825C89.5657 16.5333 89.6838 16.4587 89.8081 16.4587ZM113.165 15.7128C113.165 17.2668 112.37 18.7524 110.779 20.1696C108.329 22.3575 105.588 23.4515 102.555 23.4515C102.219 23.4515 101.958 23.4453 101.772 23.4329C100.777 23.3832 99.9754 23.0537 99.3663 22.4446C98.7695 21.8479 98.4712 21.0709 98.4712 20.1136C98.4712 19.1564 98.726 18.1121 99.2357 16.9809C99.8822 15.5512 101.144 14.1589 103.021 12.8038C105.184 11.2623 107.422 10.4915 109.734 10.4915C110.977 10.4915 111.922 10.734 112.569 11.2188C113.215 11.7036 113.538 12.3066 113.538 13.0276C113.538 13.4751 113.364 14.0283 113.016 14.6872C113.116 15.0229 113.165 15.3647 113.165 15.7128ZM112.774 14.1278C112.898 13.8294 112.96 13.5 112.96 13.1395C112.96 12.7665 112.824 12.3874 112.55 12.002C112.015 11.2561 111.071 10.8831 109.716 10.8831C107.838 10.8831 106.067 11.4674 104.401 12.636C102.735 13.7921 101.436 15.2529 100.504 17.0182C99.82 18.2986 99.4781 19.4485 99.4781 20.4679C99.4781 22.1089 100.305 22.9729 101.958 23.0599C102.132 23.0724 102.306 23.0786 102.48 23.0786C104.929 23.0786 107.26 22.0903 109.473 20.1136C111.064 18.6964 111.922 17.3476 112.047 16.0671C111.4 16.7757 110.281 17.6211 108.69 18.6032L108.541 18.6405C108.528 18.6405 108.522 18.6343 108.522 18.6218C108.522 18.5721 108.69 18.4043 109.026 18.1184L110.07 17.2606C110.965 16.4774 111.618 15.8371 112.028 15.3399C111.941 14.6437 111.624 14.0656 111.077 13.6057C110.542 13.1333 109.927 12.7914 109.231 12.5801C108.883 12.493 108.342 12.4371 107.608 12.4122C106.887 12.3874 106.527 12.3625 106.527 12.3376C106.527 12.3128 106.539 12.2879 106.564 12.263C107.136 12.0766 107.683 11.9833 108.205 11.9833C108.74 11.9833 109.349 12.0641 110.033 12.2257C111.338 12.5365 112.252 13.1706 112.774 14.1278ZM113.374 21.419C113.374 21.7919 113.579 21.9784 113.989 21.9784C114.399 21.9784 114.928 21.7608 115.574 21.3257C116.221 20.8906 116.849 20.3001 117.458 19.5542C117.607 19.3553 117.725 19.2559 117.812 19.2559C117.899 19.2559 117.943 19.2931 117.943 19.3677C117.943 19.4423 117.688 19.7655 117.178 20.3374C115.935 21.7049 114.897 22.3886 114.064 22.3886C113.654 22.3886 113.306 22.2954 113.02 22.1089C112.734 21.91 112.591 21.6116 112.591 21.2138C112.591 20.8036 112.696 20.3312 112.908 19.7966C113.268 18.9513 113.846 17.8884 114.642 16.6079C116.096 14.2459 117.128 13.0649 117.737 13.0649C117.862 13.0649 117.986 13.1146 118.11 13.2141C118.247 13.3011 118.322 13.4005 118.334 13.5124C118.048 13.8978 117.495 14.6375 116.674 15.7315C115.866 16.8255 115.307 17.6149 114.996 18.0997C114.685 18.5721 114.449 18.9264 114.288 19.1626C114.138 19.3988 114.027 19.5853 113.952 19.722C113.877 19.8464 113.79 20.0142 113.691 20.2255C113.48 20.6482 113.374 21.046 113.374 21.419ZM123.316 16.7011C124.708 14.4386 125.678 13.3073 126.225 13.3073C126.312 13.3073 126.43 13.3384 126.579 13.4005C126.741 13.4503 126.822 13.5311 126.822 13.643C126.822 13.7051 126.791 13.7859 126.729 13.8854C125.734 15.1037 124.994 16.0174 124.51 16.6266C123.043 18.4789 122.235 19.8091 122.085 20.6171C122.048 20.7912 122.029 20.9652 122.029 21.1392C122.029 21.6987 122.278 22.1071 122.719 21.9784C123.928 21.6262 124.553 21.0124 125.094 20.8492C125.573 20.7044 124.885 21.4177 125.581 20.6171C125.705 20.4928 127.337 19.9236 127.425 19.9112C127.512 19.8863 127.684 20.1395 127.684 20.2017C127.684 20.2639 127.271 20.3851 126.635 20.6171C126 20.8492 123.931 22.1897 122.813 22.3886C122.75 22.4011 122.663 22.4073 122.552 22.4073C122.166 22.4073 121.874 22.2767 121.675 22.0157C121.489 21.7422 121.395 21.45 121.395 21.1392C121.395 20.7912 121.464 20.4058 121.601 19.9831L120.09 21.4935C119.406 22.1276 118.866 22.4446 118.468 22.4446C118.082 22.4446 117.759 22.3389 117.498 22.1276C117.187 21.8914 117.032 21.5619 117.032 21.1392C117.032 20.2317 117.666 19.1502 118.934 17.8946C120.202 16.6266 121.364 15.9925 122.421 15.9925C122.769 15.9925 123.012 16.0858 123.148 16.2723C123.198 16.3344 123.254 16.4774 123.316 16.7011ZM117.815 21.363C117.815 21.8106 117.97 22.0343 118.281 22.0343C118.816 22.0343 119.705 21.3009 120.948 19.8339C121.172 19.5729 121.918 18.597 123.186 16.9063C123.099 16.7571 122.949 16.6825 122.738 16.6825C121.967 16.6825 120.954 17.273 119.698 18.454C118.443 19.6226 117.815 20.5923 117.815 21.363Z" fill="#EEFBF8"/>
<path d="M15.7241 24.1099C42.5065 24.7391 119.684 31.7872 162.24 25.899C204.41 20.0639 135.05 13.5557 123.862 21.9767C123.789 22.0317 123.718 21.8283 123.65 21.8846C132.714 14.1148 194.638 17.5618 171.304 25.5105C147.971 33.4592 33.9921 25.4185 12.0982 25.0164C-9.79561 24.6142 6.31522 33.1573 28.7288 41.0501C-0.690162 33.3981 -11.0583 23.4807 15.7241 24.1099Z" fill="#EEFBF8"/>
<path d="M123.669 21.8846C132.734 14.1148 194.638 17.5618 171.304 25.5105C147.971 33.4592 33.9921 25.4185 12.0982 25.0164C-9.79561 24.6142 6.31522 33.1573 28.7288 41.0501C-0.690162 33.3981 -11.0583 23.4807 15.7241 24.1099C42.5065 24.7391 119.684 31.7872 162.24 25.899C204.41 20.0639 135.214 13.4357 124.026 21.8566M123.669 21.8846L124.026 21.8566M123.669 21.8846C123.737 21.8283 123.953 21.9116 124.026 21.8566M123.669 21.8846L123.65 22.0141L124.026 21.8566" stroke="#EEFBF8" stroke-width="0.258993"/>
<path d="M162.11 23.309C163.97 23.309 165.477 22.9032 165.477 22.4026C165.477 21.9019 163.97 21.4961 162.11 21.4961C160.251 21.4961 158.743 21.9019 158.743 22.4026C158.743 22.9032 160.251 23.309 162.11 23.309Z" fill="#EEFBF8"/>
<path d="M155.765 21.4961C156.981 21.4961 157.966 21.2062 157.966 20.8487C157.966 20.4911 156.981 20.2012 155.765 20.2012C154.549 20.2012 153.563 20.4911 153.563 20.8487C153.563 21.2062 154.549 21.4961 155.765 21.4961Z" fill="#EEFBF8"/>
<path d="M152.009 23.827C152.868 23.827 153.563 23.5951 153.563 23.309C153.563 23.0229 152.868 22.791 152.009 22.791C151.151 22.791 150.455 23.0229 150.455 23.309C150.455 23.5951 151.151 23.827 152.009 23.827Z" fill="#EEFBF8"/>
<path fill-rule="evenodd" clip-rule="evenodd" d="M31.5621 32.4321C31.5163 32.4629 31.524 32.4551 31.5849 32.4093L31.5621 32.4321ZM38.0157 14.8851L37.6777 15.4267L37.6684 14.9815C37.1696 15.7592 36.6943 16.5521 36.2437 17.359C36.1888 17.4568 36.1339 17.5564 36.0792 17.6574C36.0577 17.6941 36.0365 17.7323 36.0152 17.7721C36.0062 17.7844 35.9984 17.7981 35.9922 17.8134C36.0137 17.8196 36.0318 17.8303 36.0471 17.8454C36.1445 17.9006 36.1826 18.0108 36.1613 18.1761C36.1554 18.2831 36.1217 18.4086 36.0608 18.5524C36.0608 18.5616 36.0593 18.5706 36.0562 18.58C36.029 18.8001 36.0181 19.0374 36.0243 19.2914C36.0243 19.7992 36.0852 20.367 36.2072 20.9943C35.9116 20.2811 35.7487 19.5959 35.7182 18.9378L35.5949 18.5754C35.4822 18.8018 35.3696 19.0282 35.2569 19.2545V19.3924C35.2691 19.6861 35.3452 19.9845 35.4853 20.2873C35.2541 20.1985 35.1046 20.0778 35.0378 19.9246H34.9189C34.2461 21.3353 33.6203 22.8056 33.0417 24.3356C32.9322 24.9567 32.8395 25.5397 32.7633 26.0844L32.5577 25.8183C32.4116 25.6621 32.2777 25.5687 32.1557 25.5381C32.2837 25.6515 32.366 25.7969 32.4026 25.9744C32.5396 26.2587 32.6079 26.5892 32.6079 26.9658C32.4831 27.6174 32.2655 27.8085 31.9548 27.5394C31.9245 27.5912 31.8954 27.6174 31.868 27.6174C31.9167 27.3268 31.9045 27.0927 31.8315 26.915C31.7188 26.6459 31.5575 26.453 31.3474 26.3367C31.4388 26.5571 31.4432 26.7498 31.3611 26.915C31.2788 27.2486 31.2241 27.6342 31.1967 28.0717L31.1876 28.6868L31.2788 30.3759C31.3549 30.997 31.457 31.6748 31.5849 32.4093C31.4417 31.9869 31.2622 31.5235 31.0459 31.0185C30.8665 30.6023 30.6134 30.3332 30.2876 30.2107H29.9224C30.1447 30.3697 30.2648 30.5399 30.2832 30.7201C30.335 30.7476 30.3806 30.7844 30.4202 30.8302C30.6608 31.0597 30.7841 31.4469 30.7901 31.9915V32.1845C30.775 32.5699 30.8312 32.9938 30.9592 33.4556C31.0169 33.7465 31.0125 34.0127 30.9455 34.2544C30.1812 35.8609 29.4809 37.4843 28.8445 39.1245C28.5827 39.9809 28.4653 40.5165 28.4928 40.7307C28.5202 40.9418 28.534 41.0581 28.534 41.0796V41.1117C28.5366 41.1192 28.5381 41.127 28.5384 41.1348H28.6117C29.0364 40.5059 29.4337 39.8344 29.8036 39.1198L32.028 34.7868C32.1405 34.6858 32.2759 34.6138 32.4344 34.5711C32.515 34.5488 32.5976 34.5351 32.681 34.5299C33.2293 34.4807 33.7636 34.3769 34.2841 34.2176C34.7529 34.1259 35.1536 33.9897 35.4853 33.8091C35.5703 33.7651 35.6527 33.7162 35.7319 33.6623C36.1095 33.1544 36.3882 32.6357 36.5677 32.1065V31.9685C36.117 32.3909 35.5858 32.6939 34.9738 32.8775C34.8373 32.9565 34.6972 33.0285 34.5537 33.0933C34.1181 33.1267 33.9537 33.0272 34.0604 32.7949C34.1979 32.7108 34.3365 32.6279 34.476 32.5468L41.5416 29.4581C42.1839 28.9776 42.653 28.5262 42.9485 28.1041C43.1067 27.8774 43.2147 27.6586 43.2725 27.4475V27.31C43.157 27.4296 43.035 27.5431 42.9073 27.6498C42.4323 28.0321 41.9586 28.2141 41.4867 28.1957C39.3311 28.9147 37.3669 29.4977 35.5949 29.9445C35.3636 29.9903 35.2204 29.9903 35.1657 29.9445C35.2419 29.7854 35.4991 29.536 35.9375 29.1962C36.6288 28.8841 37.6609 28.52 39.0341 28.1041C40.3984 27.6879 42.0104 27.0665 43.871 26.2403C43.9257 26.2525 43.9881 26.2466 44.0583 26.222C44.1373 26.1976 44.2258 26.1518 44.3232 26.0844C44.655 25.8426 45.0888 25.3346 45.6247 24.5605L45.5925 24.4549L45.7938 24.1841H45.8805C45.9085 24.1432 45.936 24.1019 45.9626 24.0602L45.9398 23.9317L46.0906 23.8676C46.0999 23.8521 46.109 23.837 46.1178 23.8215C46.4773 23.3074 46.8352 22.801 47.1913 22.3024L47.1638 22.1601L47.2599 21.9809L47.4884 21.8847C48.4024 20.6061 49.3327 19.3392 50.2788 18.0842C50.2119 17.867 49.8009 17.867 49.0457 18.0842C49.3927 17.7293 50.0747 17.3698 51.0917 17.0056V16.8724L48.292 17.1112C48.8129 16.5053 49.9164 16.2437 51.6035 16.3263C51.6185 16.311 51.6291 16.2957 51.6351 16.2804C52.7985 14.7902 53.9357 13.3888 55.0471 12.076L55.0515 11.7547L55.2755 11.6629V11.461L55.7137 11.2957L56.0015 10.8597L56.0748 10.5568L56.3122 10.4695L56.2071 10.3364H56.5497C57.1952 9.60818 57.8302 8.91211 58.4544 8.24803V8.11032C58.8835 7.67283 59.2977 7.24588 59.6965 6.82973L58.6782 6.38453L59.2901 6.16879L57.7419 5.72824L60.5463 5.99896C61.5784 4.99842 62.5832 4.08962 63.5604 3.27255C63.8619 3.10739 63.9973 2.88706 63.967 2.61167C63.7174 2.61473 63.4858 2.56416 63.2727 2.4602C62.676 2.48767 62.2862 2.38057 62.1036 2.13891C61.9482 1.86657 62.3442 1.6386 63.2911 1.45501C63.2393 1.39373 63.1706 1.32955 63.0854 1.26223C63.0124 1.20103 62.9378 1.13677 62.8617 1.06945L62.8435 1.06027C62.8192 1.04191 62.784 1.01743 62.7384 0.986836C62.7353 0.983775 62.7309 0.980716 62.7247 0.977655L62.6198 0.927167H62.6151L62.3913 0.908807C62.0502 0.813948 61.9725 0.72674 62.1582 0.64718C61.4123 0.344244 60.6253 0.156058 59.797 0.0826186C59.4743 0.0367194 59.1423 0.00917986 58.8014 0V1.79466L58.0889 0C58.0188 0 57.9488 0.00145348 57.8786 0.00458994L58.1345 1.58812L57.6367 0.743569L57.1801 0.486532L56.9152 0.0826186C55.679 0.241736 54.4625 0.619641 53.2657 1.21633C53.1287 1.28365 52.9889 1.35548 52.8456 1.43206C52.3859 1.65238 51.9306 1.88034 51.48 2.11596C51.0721 2.48621 50.6792 2.7815 50.3015 3.00182L49.5116 5.25998L49.3653 5.04434C49.2436 4.66184 49.3593 4.00847 49.7123 3.08436L49.2329 3.78211L49.1187 4.09415L48.7077 3.56637C48.2174 3.70408 47.954 3.93205 47.9175 4.25027C47.9631 4.59911 47.47 4.95859 46.4376 5.3289C45.6459 5.71438 45.1025 6.16122 44.8073 6.66908C44.3566 7.25974 43.8632 7.7065 43.3274 8.00934C42.3072 9.00077 41.3375 10.0596 40.4181 11.1856V11.3738L40.0571 11.6125L39.7375 11.998L39.8061 12.2L39.7787 12.4708L39.7466 12.5396L39.3355 12.5672C39.3355 12.5702 39.334 12.5717 39.3311 12.5717L39.0478 13.453L38.6002 13.5861C38.4024 13.8676 38.2058 14.1553 38.011 14.449L38.0157 14.8851Z" fill="#EEFBF8"/>
<path fill-rule="evenodd" clip-rule="evenodd" d="M36.586 26.4648C35.1639 28.7105 33.8663 31.0334 32.6993 33.4231L32.4115 34.1069C32.4025 34.2356 32.474 34.2952 32.6262 34.2859L32.7358 34.1986C33.5796 32.3991 34.4705 30.6221 35.4076 28.8698L40.934 20.3142C46.0006 13.0837 52.7603 6.93318 61.2128 1.86291L62.3457 1.30294L62.6331 1.07344L62.5099 1.06885C61.4198 1.54314 60.3571 2.10159 59.3219 2.74418C57.0019 4.23124 54.8048 5.80107 52.7313 7.45345C50.5573 9.20672 48.5478 11.0228 46.7025 12.9016C45.0949 14.707 43.5267 16.5475 41.9982 18.4233C41.1184 19.5494 40.2961 20.6814 39.532 21.8197L36.586 26.4648ZM32.3201 31.656C32.2043 31.8946 32.0886 32.1303 31.9731 32.3626C31.7338 32.8743 31.4903 33.3838 31.2422 33.8914C31.2178 33.9492 31.1922 34.009 31.1647 34.0704C31.0886 34.2416 31.0125 34.4112 30.9363 34.5798L28.9496 39.2155C28.7667 39.7265 28.6466 40.2391 28.5885 40.7532L28.5751 41.0375L29.63 39.1238L31.6807 35.0525C31.7293 34.9574 31.7765 34.8613 31.8223 34.7634C31.8529 34.7114 31.8772 34.6609 31.8954 34.6117C31.8985 34.5995 31.9031 34.5889 31.9091 34.5798L32.0186 34.3133C32.1285 34.0901 32.2302 33.8668 32.3248 33.6433C32.6078 33.0712 32.8834 32.5081 33.1515 31.9541C33.2305 31.8013 33.3082 31.6498 33.3843 31.4999C33.9199 30.4168 34.4819 29.3469 35.0696 28.2915C39.9262 19.6135 46.0265 12.412 53.3708 6.68685C55.5538 4.98859 57.8439 3.42655 60.2401 2.00061C61.0561 1.55691 61.8476 1.1989 62.615 0.926563L62.3912 0.908203C61.6239 1.16218 60.843 1.52325 60.0481 1.99143C57.5087 3.4143 55.0913 4.98092 52.7953 6.69144C44.434 12.9276 37.7126 21.0516 32.6306 31.0637C32.5211 31.272 32.4175 31.4693 32.3201 31.656Z" fill="#245F7F"/>
</g>
<defs>
<clipPath id="clip0">
<rect width="176.892" height="41.1799" fill="white"/>
</clipPath>
</defs>
</svg>
