<svg width="126" height="72" viewBox="0 0 126 72" fill="none" xmlns="http://www.w3.org/2000/svg"><path d="M125.94 12.9493c-2.108 2.3192-4.497 4.3573-7.027 6.1143C107.176 27.0052 95.369 35.017 83.9134 43.31c-5.9034 4.3573-13.2125 9.6985-20.8729 9.6985h-.1406c-7.6604 0-14.9694-5.3412-20.8729-9.6985-11.4555-8.3633-23.2624-16.3048-34.92879-24.2464C4.49787 17.3066 2.10838 15.2685 0 12.9493v55.8018c0 6.1845 5.06011 11.2446 11.2447 11.2446H114.696c6.184 0 11.244-5.0601 11.244-11.2446V12.9493zm0-20.66207c0-6.18453-5.13-11.24473-11.244-11.24473H11.2447C3.7248-18.9575 0-13.054 0-6.16663 0 .228785 7.09821 8.17034 12.088 11.5437c10.8933 7.5902 21.9272 15.1804 32.8204 22.8408 4.5682 3.1626 12.2989 9.6283 17.9915 9.6283h.1406c5.6926 0 13.4233-6.4657 17.9915-9.6283 10.8933-7.6604 21.927-15.2506 32.891-22.8408C120.107 7.25671 125.94.158508 125.94-7.71277z" fill="#E4F9F4"/></svg>