<svg width="32" height="26" viewBox="0 0 32 26" fill="none" xmlns="http://www.w3.org/2000/svg"><path d="M32 8.25c-.5357.58928-1.1429 1.10714-1.7857 1.55357-2.9822 2.01783-5.9822 4.05353-8.8929 6.16073-1.5 1.1071-3.3571 2.4643-5.3035 2.4643h-.0358c-1.9464 0-3.8035-1.3572-5.3035-2.4643-2.91074-2.125-5.91074-4.1429-8.87503-6.16073C1.14286 9.35714.535714 8.83928 0 8.25v14.1786C0 24 1.28571 25.2857 2.85714 25.2857H29.1429C30.7143 25.2857 32 24 32 22.4286V8.25zM32 3C32 1.42857 30.6964.142857 29.1429.142857H2.85714C.946429.142857 0 1.64286 0 3.39286c0 1.625 1.80357 3.64285 3.07143 4.5C5.83929 9.82143 8.64286 11.75 11.4107 13.6964c1.1607.8036 3.125 2.4465 4.5714 2.4465h.0358c1.4464 0 3.4107-1.6429 4.5714-2.4465 2.7678-1.9464 5.5714-3.87497 8.3571-5.80354C30.5179 6.80357 32 5 32 3z" fill="#245F7F"/></svg>