<svg width="249" height="216" viewBox="0 0 249 216" fill="none" xmlns="http://www.w3.org/2000/svg"><g clip-path="url(#clip0)"><path d="M66.4324 24.4624c-4.8843 1.5026-9.357 4.2823-13.0282 8.0971-3.6712 3.8147-6.4295 8.5487-8.0346 13.7894L0 194.478l7.14416 7.775L80.1469 122.8c-1.4541-3.313-2.3344-6.976-2.3344-10.892 0-14.0321 10.4512-25.4067 23.3435-25.4067 12.893 0 23.344 11.3746 23.344 25.4067 0 14.031-10.451 25.406-23.344 25.406-3.5986 0-6.964-.958-10.0084-2.541l-73.0027 79.453 7.1442 7.775 136.1039-49.378c4.815-1.747 9.165-4.749 12.67-8.744 3.505-3.996 6.059-8.864 7.44-14.18l20.809-80.1352-62.25-67.74998L66.4324 24.4624zM242.162-9.74073L212.929-41.5568c-9.119-9.9243-23.908-9.9243-33.026 0L152.401-11.625l62.259 67.7606 27.502-29.9318c9.119-9.9243 9.119-26.014919 0-35.94453z" fill="#E4F9F4"/></g><defs><clipPath id="clip0"><path fill="#fff" transform="translate(0 -49)" d="M0 0h249v271H0z"/></clipPath></defs></svg>