<svg width="34" height="37" viewBox="0 0 34 37" fill="none" xmlns="http://www.w3.org/2000/svg"><g clip-path="url(#clip0)"><path d="M9.04886 10.0299c-.66531.2052-1.27453.5847-1.77459 1.1055-.50006.5209-.87578 1.1672-1.09441 1.8827L0 33.2424l.973117 1.0616L10.9169 23.4562c-.198-.4524-.3179-.9525-.3179-1.4873 0-1.9157 1.4235-3.4687 3.1796-3.4687 1.7562 0 3.1797 1.553 3.1797 3.4687 0 1.9158-1.4235 3.4688-3.1797 3.4688-.4902 0-.9486-.1308-1.3632-.3469L2.47154 35.9386l.97312 1.0616 18.53894-6.7417c.6559-.2385 1.2483-.6484 1.7258-1.1939.4774-.5455.8253-1.2101 1.0133-1.9359l2.8346-10.941-8.4792-9.25002L9.04886 10.0299zM32.9853 5.36012l-3.9819-4.34388c-1.2421-1.354985-3.2565-1.354985-4.4986 0l-3.7461 4.08662 8.4805 9.25144 3.7461-4.0866c1.242-1.355 1.242-3.55187 0-4.90758z" fill="#245F7F"/></g><defs><clipPath id="clip0"><path fill="#fff" d="M0 0h33.9167v37H0z"/></clipPath></defs></svg>