<svg width="23" height="29" viewBox="0 0 23 29" fill="none" xmlns="http://www.w3.org/2000/svg"><path d="M22.8571 23.5536c0-4.6965-1.1607-10.125-5.8392-10.125-1.4465 1.4107-3.4108 2.2857-5.5893 2.2857-2.1786 0-4.14289-.875-5.58931-2.2857C1.16071 13.4286 0 18.8571 0 23.5536c0 2.6071 1.71429 4.7321 3.80357 4.7321H19.0536c2.0893 0 3.8035-2.125 3.8035-4.7321zM18.2857 7.71428c0-3.78571-3.0714-6.857139-6.8571-6.857139-3.78574 0-6.85717 3.071429-6.85717 6.857139 0 3.78572 3.07143 6.85712 6.85717 6.85712 3.7857 0 6.8571-3.0714 6.8571-6.85712z" fill="#245F7F"/></svg>