<svg width="146" height="72" viewBox="0 0 146 72" fill="none" xmlns="http://www.w3.org/2000/svg"><path d="M145.093 99.4705c0-29.8121-7.368-64.2717-37.067-64.2717-9.1813 8.9549-21.6502 14.5093-35.4794 14.5093-13.8292 0-26.2982-5.5544-35.4798-14.5093C7.36801 35.1988 0 69.6584 0 99.4705 0 116.02 10.882 129.509 24.1444 129.509h96.8046c13.262 0 24.144-13.489 24.144-30.0385zM116.075-1.07454c0-24.03106-19.4974-43.52796-43.5284-43.52796-24.0311 0-43.528 19.4969-43.528 43.52796 0 24.03104 19.4969 43.52794 43.528 43.52794 24.031 0 43.5284-19.4969 43.5284-43.52794z" fill="#E4F9F4"/></svg>