<svg width="92" height="72" viewBox="0 0 92 72" fill="none" xmlns="http://www.w3.org/2000/svg"><path d="M91.6486 64.733c0-.4557 0-.9113-.1952-1.367-.4557-1.3669-3.6452-2.7989-4.947-3.4498-3.7102-2.0829-7.4855-4.1008-11.1306-6.2488-1.6924-1.0414-3.7753-2.9942-5.7931-2.9942-3.9706 0-9.7637 11.7816-13.2787 11.7816-1.7574 0-4.0356-1.6273-5.5978-2.5386C38.8595 53.342 30.658 45.1405 24.0838 33.2938c-.9113-1.5622-2.5386-3.8404-2.5386-5.5978 0-3.515 11.7816-9.3081 11.7816-13.2787 0-2.0178-1.9528-4.1007-2.9942-5.79309-2.148-3.64512-4.1659-7.42042-6.2488-11.13062-.6509-1.30183-2.0829-4.49131-3.4498-4.94695-.4557-.19527-.9113-.19527-1.367-.19527-2.3432 0-6.8996 1.04146-9.0477 2.01783C7.02987-4.26388 4.94694-.618765 3.31966 2.31035 1.23674 6.15074 0 10.0562 0 14.4173c0 6.0535 2.47347 11.5212 4.4913 17.054 1.43201 3.9705 3.18948 7.8109 5.40259 11.391C16.7285 53.9278 30.0722 67.2715 41.1377 74.1061c3.5801 2.2131 7.4205 3.9706 11.391 5.4026C58.0615 81.5265 63.5292 84 69.5827 84c4.3611 0 8.2666-1.2367 12.107-3.3197 2.9291-1.6272 6.5742-3.7102 7.9411-6.8996.9764-2.1481 2.0178-6.7045 2.0178-9.0477z" fill="#E4F9F4"/></svg>