<svg width="26" height="26" viewBox="0 0 26 26" fill="none" xmlns="http://www.w3.org/2000/svg"><path d="M25.1429 20.7143c0-.125 0-.25-.0536-.375-.125-.375-1-.7679-1.3572-.9464-1.0178-.5715-2.0535-1.125-3.0535-1.7143-.4643-.2857-1.0357-.8215-1.5893-.8215-1.0893 0-2.6786 3.2322-3.6429 3.2322-.4821 0-1.1071-.4464-1.5357-.6964-3.25-1.8036-5.49998-4.0536-7.30356-7.3036-.25-.4286-.69643-1.0536-.69643-1.5357 0-.96432 3.23215-2.5536 3.23215-3.64289 0-.55357-.53572-1.125-.82143-1.58928-.58929-1-1.14286-2.03572-1.71429-3.05357-.17857-.35715-.57143-1.23215-.94643-1.357147-.125-.053572-.25-.053572-.375-.053572-.64285 0-1.89285.285719-2.48214.553569-.875.375-1.44643 1.375-1.892856 2.17857C.339286 4.64286 0 5.71428 0 6.91071c0 1.66072.678571 3.16069 1.23214 4.67859.39286 1.0893.875 2.1428 1.48215 3.125 1.875 3.0357 5.53571 6.6964 8.57141 8.5714.9822.6072 2.0357 1.0893 3.125 1.4822C15.9286 25.3214 17.4286 26 19.0893 26c1.1964 0 2.2678-.3393 3.3214-.9107.8036-.4464 1.8036-1.0179 2.1786-1.8929.2678-.5893.5536-1.8393.5536-2.4821z" fill="#245F7F"/></svg>