<svg width="119" height="72" viewBox="0 0 119 72" fill="none" xmlns="http://www.w3.org/2000/svg"><path d="M113.267 21.2134L81.7866-10.2667c-.7716-.7715-1.6975-1.4659-2.7777-2.1604v36.4182h36.4181c-.694-1.0802-1.389-2.0061-2.16-2.7777zM76.5399 33.8672c-4.0894 0-7.4071-3.3177-7.4071-7.4071v-41.9734H7.40708C3.31776-15.5133 0-12.1956 0-8.10626V115.345c0 4.089 3.31776 7.407 7.40708 7.407H111.106c4.09 0 7.407-3.318 7.407-7.407V33.8672H76.5399zM88.885 90.6549c0 1.3888-1.0802 2.469-2.469 2.469H32.0974c-1.3889 0-2.4691-1.0802-2.4691-2.469v-4.9381c0-1.3888 1.0802-2.469 2.4691-2.469H86.416c1.3888 0 2.469 1.0802 2.469 2.469v4.9381zm0-19.7523c0 1.3889-1.0802 2.4691-2.469 2.4691H32.0974c-1.3889 0-2.4691-1.0802-2.4691-2.4691v-4.938c0-1.3888 1.0802-2.469 2.4691-2.469H86.416c1.3888 0 2.469 1.0802 2.469 2.469v4.938zm0-19.7522c0 1.3888-1.0802 2.469-2.469 2.469H32.0974c-1.3889 0-2.4691-1.0802-2.4691-2.469v-4.938c0-1.3889 1.0802-2.4691 2.4691-2.4691H86.416c1.3888 0 2.469 1.0802 2.469 2.4691v4.938z" fill="#E4F9F4"/></svg>