<svg width="28" height="33" viewBox="0 0 28 33" fill="none" xmlns="http://www.w3.org/2000/svg"><path d="M26.2143 9.07143l-7.2857-7.28572c-.1786-.17857-.3929-.33928-.6429-.5v8.42857h8.4286c-.1607-.25-.3214-.46428-.5-.64285zM17.7143 12C16.7679 12 16 11.2321 16 10.2857V.571426H1.71429C.767857.571426 0 1.33928 0 2.28571V30.8571c0 .9465.767857 1.7143 1.71429 1.7143H25.7143c.9464 0 1.7143-.7678 1.7143-1.7143V12h-9.7143zm2.8571 13.1429c0 .3214-.25.5714-.5714.5714H7.42857c-.32143 0-.57143-.25-.57143-.5714V24c0-.3214.25-.5714.57143-.5714H20c.3214 0 .5714.25.5714.5714v1.1429zm0-4.5715c0 .3215-.25.5715-.5714.5715H7.42857c-.32143 0-.57143-.25-.57143-.5715v-1.1428c0-.3215.25-.5715.57143-.5715H20c.3214 0 .5714.25.5714.5715v1.1428zm0-4.5714c0 .3214-.25.5714-.5714.5714H7.42857c-.32143 0-.57143-.25-.57143-.5714v-1.1429c0-.3214.25-.5714.57143-.5714H20c.3214 0 .5714.25.5714.5714V16z" fill="#245F7F"/></svg>